<?xml version="1.0" encoding="utf-8"?>
<!-- Generator: Adobe Illustrator 17.0.0, SVG Export Plug-In . SVG Version: 6.00 Build 0)  -->
<!DOCTYPE svg PUBLIC "-//W3C//DTD SVG 1.1//EN" "http://www.w3.org/Graphics/SVG/1.1/DTD/svg11.dtd">
<svg version="1.1" id="Layer_1" xmlns="http://www.w3.org/2000/svg" xmlns:xlink="http://www.w3.org/1999/xlink" x="0px" y="0px"
	 width="2304px" height="2304px" viewBox="0 0 2304 2304" enable-background="new 0 0 2304 2304" xml:space="preserve">
<g>
	<g>
		<g>
			<path fill="#802123" d="M51.278,276.663h144.371v781.597H51.278V276.663z"/>
			<path fill="#802123" d="M1015.828,913.888c-87.121,109.523-209.09,160.551-333.548,160.551
				c-233.981,0-419.423-177.975-419.423-406.978c0-229.003,185.442-406.978,419.423-406.978
				c124.458,0,246.427,51.028,333.548,160.551l-119.48,89.61c-49.783-72.185-125.702-113.257-214.068-113.257
				c-140.637,0-267.584,118.235-267.584,270.074s126.947,270.074,267.584,270.074c88.365,0,166.774-41.071,216.557-108.279
				L1015.828,913.888z"/>
		</g>
		<g>
			<path fill="#802123" d="M574.093,349.859l347.238,350.972l347.239-350.972v797.777h-144.372V664.738L921.331,875.072
				L718.464,664.738v482.898H574.093V349.859z"/>
			<path fill="#802123" d="M1385.55,366.039h144.37v781.597h-144.37V366.039z"/>
			<path fill="#802123" d="M1668.068,815.332h-93.343V678.429h93.343v-312.39h599.889v136.904H1812.44v175.486h317.368v136.904
				H1812.44v195.399h455.517v136.904h-599.889V815.332z"/>
		</g>
	</g>
	<g>
		<path fill="#BD8234" d="M52.222,1884.21l372.13-293.721c46.05-37.338,67.207-75.92,67.207-118.236
			c0-69.696-68.452-120.723-148.105-120.723c-72.185,0-134.415,38.582-172.996,98.321l-134.415-51.027
			c68.451-102.057,179.22-169.263,316.123-169.263c180.465,0,283.765,113.257,283.765,245.182
			c0,83.388-48.539,153.084-130.681,215.313l-271.319,205.356v2.49h399.511v129.437H52.222V1884.21z"/>
		<path fill="#BD8234" d="M728.027,1500.879c0-180.465,125.703-271.319,262.607-271.319s262.606,90.854,262.606,271.319v271.319
			c0,180.464-125.702,271.319-262.606,271.319s-262.607-90.855-262.607-271.319V1500.879z M872.398,1780.91
			c0,87.121,58.495,125.703,118.235,125.703c59.74,0,118.236-38.582,118.236-125.703v-288.743
			c0-87.121-58.496-125.703-118.236-125.703c-59.74,0-118.235,38.582-118.235,125.703V1780.91z"/>
		<path fill="#BD8234" d="M1426.229,1458.563l-104.545,70.941V1378.91l248.915-149.349v797.777h-144.37V1458.563z"/>
		<path fill="#BD8234" d="M2104.517,1268.142l-160.551,241.449c21.159-3.734,36.094-6.223,64.718-6.223
			c154.329,0,256.384,120.723,256.384,262.607c0,154.327-107.035,277.542-288.743,277.542
			c-194.154,0-288.743-143.127-288.743-260.118c0-85.876,22.404-144.372,72.186-226.513l202.867-338.527L2104.517,1268.142z
			 M1976.325,1921.547c83.388,0,151.839-68.452,151.839-151.839c0-83.386-68.451-151.839-151.839-151.839
			c-83.386,0-151.839,68.453-151.839,151.839C1824.486,1853.096,1892.939,1921.547,1976.325,1921.547z"/>
	</g>
</g>
</svg>
