<?xml version="1.0" encoding="utf-8"?>
<!-- Generator: Adobe Illustrator 15.0.0, SVG Export Plug-In . SVG Version: 6.00 Build 0)  -->
<!DOCTYPE svg PUBLIC "-//W3C//DTD SVG 1.1//EN" "http://www.w3.org/Graphics/SVG/1.1/DTD/svg11.dtd">
<svg version="1.1" id="Layer_1" xmlns="http://www.w3.org/2000/svg" xmlns:xlink="http://www.w3.org/1999/xlink" x="0px" y="0px"
	 width="2304px" height="2304px" viewBox="0 0 2304 2304" enable-background="new 0 0 2304 2304" xml:space="preserve">
<g>
	<g>
		<path fill="#BC8132" d="M631.685,1444.909c0-32.767-5.41-54.908-16.211-66.414c-10.818-11.505-25.281-17.256-43.404-17.256
			c-18.138,0-32.601,5.408-43.402,16.212c-10.819,10.816-16.212,29.463-16.212,55.952v78.441h-108.77v-71.118
			c0-59.258,14.462-104.753,43.402-136.487c28.925-31.721,71.644-47.588,128.12-47.588c56.478,0,99.179,15.867,128.12,47.588
			c28.925,31.734,43.404,77.229,43.404,136.487c0,38.354-5.589,73.048-16.734,104.063c-11.162,31.033-25.281,59.271-42.358,84.716
			c-17.093,25.46-35.559,48.993-55.432,70.597c-19.871,21.62-38.353,42.193-55.431,61.707c-17.093,19.527-31.212,38.533-42.357,57
			c-11.161,18.479-16.733,37.828-16.733,58.045c0,6.979,0.342,12.207,1.046,15.688h217.542v104.586H403.685v-89.944
			c0-35.558,5.572-66.936,16.733-94.129c11.145-27.19,25.265-52.112,42.357-74.778c17.078-22.651,35.38-43.927,54.909-63.799
			c19.512-19.87,37.815-40.954,54.908-63.275c17.078-22.307,31.197-46.704,42.358-73.211
			C626.096,1511.5,631.685,1480.469,631.685,1444.909z"/>
		<path fill="#BC8132" d="M808.434,1440.727c0-59.258,14.985-104.753,44.973-136.487c29.971-31.721,73.21-47.588,129.688-47.588
			c56.478,0,99.702,15.867,129.688,47.588c29.972,31.734,44.975,77.229,44.975,136.487v380.695
			c0,59.272-15.003,104.768-44.975,136.485c-29.985,31.737-73.21,47.59-129.688,47.59c-56.477,0-99.717-15.853-129.688-47.59
			c-29.987-31.718-44.973-77.213-44.973-136.485V1440.727z M923.479,1828.745c0,26.504,5.393,45.15,16.212,55.952
			c10.801,10.818,25.264,16.212,43.403,16.212c18.122,0,32.586-5.394,43.403-16.212c10.802-10.802,16.211-29.448,16.211-55.952
			v-395.342c0-26.489-5.409-45.136-16.211-55.952c-10.817-10.804-25.281-16.212-43.403-16.212c-18.139,0-32.602,5.408-43.403,16.212
			c-10.819,10.816-16.212,29.463-16.212,55.952V1828.745z"/>
		<path fill="#BC8132" d="M1240.375,1357.055c22.306,0,40.608-2.435,54.908-7.32c14.282-4.869,25.966-11.504,35.037-19.87
			c9.053-8.369,16.372-18.125,21.964-29.286c5.57-11.145,10.457-23.009,14.642-35.559h77.395v732.108h-115.047v-558.496h-88.898
			V1357.055z"/>
		<path fill="#BC8132" d="M1900.315,1265.02v100.402l-169.432,631.706h-115.046l168.386-627.521h-229.046V1265.02H1900.315z"/>
	</g>
	<g>
		<g>
			<path fill="#802123" d="M127.885,313.454h133.4v722.201h-133.4V313.454z"/>
			<path fill="#802123" d="M1019.137,902.255c-80.5,101.2-193.2,148.351-308.201,148.351c-216.201,0-387.551-164.45-387.551-376.052
				c0-211.6,171.35-376.051,387.551-376.051c115,0,227.701,47.15,308.201,148.351l-110.4,82.801
				c-46-66.7-116.149-104.65-197.8-104.65c-129.951,0-247.25,109.25-247.25,249.55c0,140.301,117.299,249.551,247.25,249.551
				c81.65,0,154.101-37.949,200.101-100.051L1019.137,902.255z"/>
		</g>
		<g>
			<path fill="#802123" d="M610.97,381.088l320.851,324.301l320.853-324.301v737.152h-133.402V672.038L931.821,866.389
				l-187.45-194.351v446.202h-133.4V381.088z"/>
			<path fill="#802123" d="M1360.763,396.038h133.4v722.202h-133.4V396.038z"/>
			<path fill="#802123" d="M1621.813,811.188h-86.25v-126.5h86.25v-288.65h554.302v126.5h-420.903v162.15h293.252v126.5h-293.252
				v180.551h420.903v126.501h-554.302V811.188L1621.813,811.188z"/>
		</g>
	</g>
</g>
</svg>
